<svg class="ldi-3luyrz" width="200px"  height="200px"  xmlns="http://www.w3.org/2000/svg" xmlns:xlink="http://www.w3.org/1999/xlink" viewBox="0 0 100 100" preserveAspectRatio="xMidYMid" style="background: none;"><!--?xml version="1.0" encoding="utf-8"?--><!--Generator: Adobe Illustrator 21.0.0, SVG Export Plug-In . SVG Version: 6.00 Build 0)--><svg version="1.1" id="圖層_1" xmlns="http://www.w3.org/2000/svg" xmlns:xlink="http://www.w3.org/1999/xlink" x="0px" y="0px" viewBox="0 0 100 100" style="transform-origin: 50px 50px 0px;" xml:space="preserve"><g style="transform-origin: 50px 50px 0px;"><g style="transform-origin: 50px 50px 0px; transform: scale(0.6);"><g style="transform-origin: 50px 50px 0px;"><g><style type="text/css" class="ld ld-breath" style="transform-origin: 50px 50px 0px; animation-duration: 1s; animation-delay: -1s; animation-direction: normal;">.st0{fill:none;stroke:#F8B26A;stroke-width:4;stroke-miterlimit:10;} .st1{fill:#E15B64;} .st2{fill:#ABBD81;} .st3{fill:#849B87;} .st4{fill:#F5E6C8;} .st5{fill:#C8DC96;} .st6{fill:#CCCCCC;} .st7{fill:#333333;} .st8{fill:#E0E0E0;} .st9{fill:#FFFFFF;stroke:#E15B64;stroke-width:9.375;stroke-miterlimit:10;} .st10{fill:#E0E0E0;stroke:#333333;stroke-width:3;stroke-linecap:round;stroke-miterlimit:10;} .st11{fill:#666666;stroke:#333333;stroke-width:3;stroke-linecap:round;stroke-miterlimit:10;} .st12{fill:none;stroke:#E15B64;stroke-width:8;stroke-miterlimit:10;} .st13{fill:#E0E0E0;stroke:#333333;stroke-width:2.5723;stroke-linecap:round;stroke-miterlimit:10;} .st14{fill:#666666;stroke:#333333;stroke-width:2.5723;stroke-linecap:round;stroke-miterlimit:10;} .st15{fill:#E0E0E0;stroke:#333333;stroke-width:2.935;stroke-linecap:round;stroke-miterlimit:10;} .st16{fill:#666666;stroke:#333333;stroke-width:2.935;stroke-linecap:round;stroke-miterlimit:10;} .st17{fill:#ABBD81;stroke:#333333;stroke-width:3.5653;stroke-linecap:round;stroke-miterlimit:10;} .st18{fill:none;stroke:#333333;stroke-width:4.208;stroke-linecap:round;stroke-miterlimit:10;} .st19{fill:#F47E60;stroke:#333333;stroke-width:3.607;stroke-miterlimit:10;} .st20{fill:#F47E60;stroke:#333333;stroke-width:4.0972;stroke-miterlimit:10;} .st21{fill:#F47E60;stroke:#333333;stroke-width:4.2085;stroke-miterlimit:10;} .st22{fill:#F8B26A;} .st23{fill:#FFFFFF;} .st24{fill:#FFFFFF;stroke:#FFFFFF;stroke-miterlimit:10;} .st25{fill:none;stroke:#FFFFFF;stroke-width:2;stroke-linecap:round;stroke-miterlimit:10;} .st26{fill:#E0E0E0;stroke:#332518;stroke-width:4;stroke-linecap:round;stroke-miterlimit:10;} .st27{fill:#66503A;} .st28{fill:#666666;} .st29{fill:#FFFFFF;stroke:#E0E0E0;stroke-width:5;stroke-linecap:round;stroke-miterlimit:10;} .st30{fill:none;stroke:#666666;stroke-width:4;stroke-miterlimit:10;stroke-dasharray:7.8519,7.8519;} .st31{fill:#F8B26A;stroke:#F47E60;stroke-width:4;stroke-miterlimit:10;} .st32{fill:none;stroke:#C33737;stroke-width:8;stroke-miterlimit:10;} .st33{fill:#A0C8D7;} .st34{fill:#F47E60;} .st35{fill:#C33737;stroke:#E15B64;stroke-width:5;stroke-miterlimit:10;} .st36{fill:#4A3827;} .st37{opacity:0.5;} .st38{fill:none;stroke:#000000;stroke-width:2.2018;stroke-miterlimit:10;} .st39{fill:none;stroke:#000000;stroke-width:2.2018;stroke-miterlimit:10;stroke-dasharray:4.7318,4.7318;} .st40{fill:none;stroke:#333333;stroke-width:7.4066;stroke-miterlimit:10;} .st41{fill:none;stroke:#333333;stroke-width:7.6862;stroke-miterlimit:10;} .st42{fill:#F8B26A;stroke:#333333;stroke-width:4;stroke-miterlimit:10;} .st43{fill:#F5E6C8;stroke:#333333;stroke-width:4;stroke-miterlimit:10;} .st44{fill:none;stroke:#333333;stroke-width:4;stroke-miterlimit:10;} .st45{opacity:0.2;} .st46{fill:none;stroke:#332518;stroke-width:4;stroke-linecap:round;stroke-miterlimit:10;} .st47{fill-rule:evenodd;clip-rule:evenodd;fill:#B5B5B5;} .st48{fill:#FFFFFF;stroke:#FFFFFF;stroke-width:0.6282;stroke-miterlimit:10;} .st49{fill:none;stroke:#FFFFFF;stroke-width:1.2563;stroke-linecap:round;stroke-miterlimit:10;} .st50{opacity:0.6;fill:#F5E169;} .st51{fill:none;} .st52{fill:#F8B26A;stroke:#333333;stroke-width:3.6728;stroke-linejoin:round;stroke-miterlimit:10;} .st53{fill:none;stroke:#E0E0E0;stroke-width:1.5;stroke-miterlimit:10;} .st54{fill:#66503A;stroke:#4A3827;stroke-width:3;stroke-miterlimit:10;} .st55{fill:none;stroke:#4A3827;stroke-width:3;stroke-miterlimit:10;} .st56{fill:none;stroke:#333333;stroke-width:3.1166;stroke-linecap:round;stroke-miterlimit:10;} .st57{fill:#999999;stroke:#333333;stroke-width:3;stroke-miterlimit:10;} .st58{fill:#E0E0E0;stroke:#333333;stroke-width:3.5653;stroke-linecap:round;stroke-miterlimit:10;} .st59{fill:#666666;stroke:#333333;stroke-width:3.5653;stroke-linecap:round;stroke-miterlimit:10;} .st60{fill:none;stroke:#333333;stroke-width:3;stroke-miterlimit:10;} .st61{fill:#E0E0E0;stroke:#333333;stroke-width:3.1759;stroke-linecap:round;stroke-miterlimit:10;} .st62{fill:#666666;stroke:#333333;stroke-width:3.1759;stroke-linecap:round;stroke-miterlimit:10;} .st63{fill:#E0E0E0;stroke:#333333;stroke-width:3.1886;stroke-linecap:round;stroke-miterlimit:10;} .st64{fill:#666666;stroke:#333333;stroke-width:3.1886;stroke-linecap:round;stroke-miterlimit:10;} .st65{fill:#E0E0E0;stroke:#333333;stroke-width:3.1503;stroke-linecap:round;stroke-miterlimit:10;} .st66{fill:#666666;stroke:#333333;stroke-width:3.1503;stroke-linecap:round;stroke-miterlimit:10;} .st67{fill:#FFFFFF;stroke:#333333;stroke-width:4;stroke-miterlimit:10;} .st68{fill:none;stroke:#849B87;stroke-width:4;stroke-linecap:round;stroke-miterlimit:10;} .st69{fill:#FFFFFF;stroke:#333333;stroke-width:3.9519;stroke-miterlimit:10;} .st70{fill:none;stroke:#E15B64;stroke-width:3.9519;stroke-linecap:round;stroke-miterlimit:10;} .st71{fill:#FFFFFF;stroke:#333333;stroke-width:3.9841;stroke-miterlimit:10;} .st72{fill:#C33737;} .st73{fill:none;stroke:#E15B64;stroke-width:9.8945;stroke-miterlimit:10;} .st74{fill:#ABBD81;stroke:#333333;stroke-width:2.9913;stroke-linecap:round;stroke-miterlimit:10;} .st75{fill:#66503A;stroke:#333333;stroke-width:2.9913;stroke-linecap:round;stroke-miterlimit:10;} .st76{fill:#E0E0E0;stroke:#333333;stroke-width:2.8537;stroke-linecap:round;stroke-miterlimit:10;} .st77{fill:#666666;stroke:#333333;stroke-width:2.8537;stroke-linecap:round;stroke-miterlimit:10;} .st78{fill:#E0E0E0;stroke:#333333;stroke-width:3.1909;stroke-linecap:round;stroke-miterlimit:10;} .st79{fill:#666666;stroke:#333333;stroke-width:3.1909;stroke-linecap:round;stroke-miterlimit:10;} .st80{fill:#666666;stroke:#333333;stroke-width:4.9453;stroke-linecap:round;stroke-miterlimit:10;} .st81{fill:#F5E6C8;stroke:#333333;stroke-width:4.0165;stroke-linecap:round;stroke-linejoin:round;stroke-miterlimit:10;} .st82{fill:#E0E0E0;stroke:#333333;stroke-width:3;stroke-miterlimit:10;} .st83{fill:#666666;stroke:#333333;stroke-width:3;stroke-miterlimit:10;} .st84{fill:#F5E6C8;stroke:#333333;stroke-miterlimit:10;} .st85{fill:#F8B26A;stroke:#333333;stroke-miterlimit:10;} .st86{fill:#77A4BD;} .st87{fill:none;stroke:#333333;stroke-width:2.3991;stroke-miterlimit:10;} .st88{fill:#666666;stroke:#333333;stroke-width:5.1406;stroke-linecap:round;stroke-miterlimit:10;} .st89{fill:#66503A;stroke:#333333;stroke-width:3;stroke-linecap:round;stroke-miterlimit:10;}</style><g style="transform-origin: 50px 50px 0px;"><g><g class="ld ld-breath" style="transform-origin: 50px 50px 0px; animation-duration: 1s; animation-delay: -0.944444s; animation-direction: normal;"><path class="st22" d="M39.337,14.758c-13.163,0-23.871,10.709-23.871,23.872c0,13.163,10.708,23.872,23.871,23.872 c13.163,0,23.872-10.709,23.872-23.872C63.209,25.467,52.5,14.758,39.337,14.758z" fill="rgb(248, 178, 106)" stroke="rgb(0, 0, 0)" style="fill: rgb(248, 178, 106); stroke: rgb(0, 0, 0);"></path></g><g class="ld ld-breath" style="transform-origin: 50px 50px 0px; animation-duration: 1s; animation-delay: -0.888889s; animation-direction: normal;"><path class="st4" d="M39.337,10c-15.787,0-28.63,12.843-28.63,28.63s12.843,28.631,28.63,28.631 c15.787,0,28.631-12.844,28.631-28.631S55.123,10,39.337,10z M39.337,62.502c-13.163,0-23.871-10.709-23.871-23.872 c0-13.163,10.708-23.872,23.871-23.872c13.163,0,23.872,10.709,23.872,23.872C63.209,51.793,52.5,62.502,39.337,62.502z" fill="rgb(245, 230, 200)" style="fill: rgb(245, 230, 200);"></path></g><g class="ld ld-breath" style="transform-origin: 50px 50px 0px; animation-duration: 1s; animation-delay: -0.833333s; animation-direction: normal;"><path class="st4" d="M41.623,35.935c-3.47-1.306-4.898-2.163-4.898-3.51c0-1.144,0.857-2.287,3.511-2.287 c1.457,0,2.654,0.231,3.619,0.518c1.266,0.377,2.587-0.407,2.915-1.687c0.326-1.27-0.447-2.544-1.715-2.878 c-1.011-0.266-2.215-0.459-3.676-0.525v-1.591c0-1.105-0.895-2-2-2c-1.105,0-2,0.895-2,2v1.877c-4.368,0.857-6.9,3.674-6.9,7.266 c0,3.959,2.98,6,7.348,7.47c3.021,1.021,4.327,2.001,4.327,3.552c0,1.634-1.591,2.531-3.918,2.531 c-1.592,0-3.096-0.309-4.415-0.758c-1.296-0.442-2.697,0.272-3.038,1.598l-0.049,0.192c-0.308,1.201,0.359,2.442,1.537,2.828 c1.42,0.466,3.144,0.798,4.902,0.876v1.878c0,1.105,0.895,2,2,2h0.001c1.105,0,2-0.895,2-2v-2.164 c4.693-0.816,7.266-3.918,7.266-7.552C48.44,39.895,46.48,37.651,41.623,35.935z" fill="rgb(245, 230, 200)" style="fill: rgb(245, 230, 200);"></path></g></g></g><g style="transform-origin: 50px 50px 0px;"><g><g class="ld ld-breath" style="transform-origin: 50px 50px 0px; animation-duration: 1s; animation-delay: -0.777778s; animation-direction: normal;"><path class="st22" d="M60.662,37.498c-13.163,0-23.871,10.709-23.871,23.872c0,13.163,10.708,23.872,23.871,23.872 c13.163,0,23.872-10.709,23.872-23.872C84.535,48.206,73.825,37.498,60.662,37.498z" fill="rgb(248, 178, 106)" stroke="rgb(0, 0, 0)" style="fill: rgb(248, 178, 106); stroke: rgb(0, 0, 0);"></path></g><g class="ld ld-breath" style="transform-origin: 50px 50px 0px; animation-duration: 1s; animation-delay: -0.722222s; animation-direction: normal;"><path class="st4" d="M60.662,32.739c-15.787,0-28.63,12.843-28.63,28.63S44.876,90,60.662,90c15.787,0,28.631-12.844,28.631-28.631 S76.449,32.739,60.662,32.739z M60.662,85.241c-13.163,0-23.871-10.709-23.871-23.872c0-13.163,10.708-23.872,23.871-23.872 c13.163,0,23.872,10.709,23.872,23.872C84.535,74.532,73.825,85.241,60.662,85.241z" fill="rgb(245, 230, 200)" style="fill: rgb(245, 230, 200);"></path></g><g class="ld ld-breath" style="transform-origin: 50px 50px 0px; animation-duration: 1s; animation-delay: -0.666667s; animation-direction: normal;"><path class="st4" d="M62.948,58.674c-3.47-1.306-4.898-2.163-4.898-3.51c0-1.144,0.857-2.287,3.511-2.287 c1.457,0,2.654,0.231,3.619,0.518c1.266,0.377,2.587-0.407,2.915-1.687c0.326-1.27-0.447-2.544-1.715-2.878 c-1.011-0.266-2.215-0.459-3.676-0.525v-1.591c0-1.105-0.895-2-2-2c-1.105,0-2,0.895-2,2v1.877c-4.368,0.857-6.9,3.674-6.9,7.266 c0,3.959,2.98,6,7.348,7.47c3.021,1.021,4.327,2.001,4.327,3.552c0,1.634-1.591,2.531-3.918,2.531 c-1.592,0-3.096-0.309-4.415-0.758c-1.296-0.442-2.697,0.272-3.038,1.598l-0.049,0.192c-0.308,1.201,0.359,2.442,1.537,2.828 c1.42,0.466,3.144,0.798,4.902,0.876v1.878c0,1.105,0.895,2,2,2H60.5c1.105,0,2-0.895,2-2V73.86 c4.693-0.816,7.266-3.918,7.266-7.552C69.766,62.634,67.806,60.39,62.948,58.674z" fill="rgb(245, 230, 200)" style="fill: rgb(245, 230, 200);"></path></g></g></g><metadata xmlns:d="https://loading.io/stock/" class="ld ld-breath" style="transform-origin: 50px 50px 0px; animation-duration: 1s; animation-delay: -0.611111s; animation-direction: normal;">
<d:name class="ld ld-breath" style="transform-origin: 50px 50px 0px; animation-duration: 1s; animation-delay: -0.555556s; animation-direction: normal;">coin</d:name>
<d:tags class="ld ld-breath" style="transform-origin: 50px 50px 0px; animation-duration: 1s; animation-delay: -0.5s; animation-direction: normal;">coin,dollar,money,bucks,currency,price,value</d:tags>
<d:license class="ld ld-breath" style="transform-origin: 50px 50px 0px; animation-duration: 1s; animation-delay: -0.444444s; animation-direction: normal;">cc-by</d:license>
<d:slug class="ld ld-breath" style="transform-origin: 50px 50px 0px; animation-duration: 1s; animation-delay: -0.388889s; animation-direction: normal;">3luyrz</d:slug>
</metadata></g></g></g></g><style type="text/css" class="ld ld-breath" style="transform-origin: 50px 50px 0px; animation-duration: 1s; animation-delay: -0.333333s; animation-direction: normal;">path,ellipse,circle,rect,polygon,polyline,line { stroke-width: 0; }@keyframes ld-breath {
  0% {
    -webkit-transform: scale(0.86);
    transform: scale(0.86);
  }
  50% {
    -webkit-transform: scale(1.06);
    transform: scale(1.06);
  }
  100% {
    -webkit-transform: scale(0.86);
    transform: scale(0.86);
  }
}
@-webkit-keyframes ld-breath {
  0% {
    -webkit-transform: scale(0.86);
    transform: scale(0.86);
  }
  50% {
    -webkit-transform: scale(1.06);
    transform: scale(1.06);
  }
  100% {
    -webkit-transform: scale(0.86);
    transform: scale(0.86);
  }
}
.ld.ld-breath {
  -webkit-animation: ld-breath 1s infinite;
  animation: ld-breath 1s infinite;
}
</style></svg></svg>