<svg class="ldi-399d8z" width="200px"  height="200px"  xmlns="http://www.w3.org/2000/svg" xmlns:xlink="http://www.w3.org/1999/xlink" viewBox="0 0 100 100" preserveAspectRatio="xMidYMid" style="background: none;"><!--?xml version="1.0" encoding="utf-8"?--><!--Generator: Adobe Illustrator 21.0.0, SVG Export Plug-In . SVG Version: 6.00 Build 0)--><svg version="1.1" id="圖層_1" xmlns="http://www.w3.org/2000/svg" xmlns:xlink="http://www.w3.org/1999/xlink" x="0px" y="0px" viewBox="0 0 100 100" style="transform-origin: 50px 50px 0px;" xml:space="preserve"><g style="transform-origin: 50px 50px 0px;"><g style="transform-origin: 50px 50px 0px; transform: scale(0.6);"><g style="transform-origin: 50px 50px 0px;"><g><style type="text/css" class="ld ld-fade" style="transform-origin: 50px 50px 0px; animation-duration: 1s; animation-delay: -1s; animation-direction: normal;">.st0{fill:none;stroke:#F8B26A;stroke-width:4;stroke-miterlimit:10;} .st1{fill:#E15B64;} .st2{fill:#ABBD81;} .st3{fill:#849B87;} .st4{fill:#F5E6C8;} .st5{fill:#C8DC96;} .st6{fill:#CCCCCC;} .st7{fill:#333333;} .st8{fill:#E0E0E0;} .st9{fill:#FFFFFF;stroke:#E15B64;stroke-width:9.375;stroke-miterlimit:10;} .st10{fill:#E0E0E0;stroke:#333333;stroke-width:3;stroke-linecap:round;stroke-miterlimit:10;} .st11{fill:#666666;stroke:#333333;stroke-width:3;stroke-linecap:round;stroke-miterlimit:10;} .st12{fill:none;stroke:#E15B64;stroke-width:8;stroke-miterlimit:10;} .st13{fill:#E0E0E0;stroke:#333333;stroke-width:2.5723;stroke-linecap:round;stroke-miterlimit:10;} .st14{fill:#666666;stroke:#333333;stroke-width:2.5723;stroke-linecap:round;stroke-miterlimit:10;} .st15{fill:#E0E0E0;stroke:#333333;stroke-width:2.935;stroke-linecap:round;stroke-miterlimit:10;} .st16{fill:#666666;stroke:#333333;stroke-width:2.935;stroke-linecap:round;stroke-miterlimit:10;} .st17{fill:#ABBD81;stroke:#333333;stroke-width:3.5653;stroke-linecap:round;stroke-miterlimit:10;} .st18{fill:none;stroke:#333333;stroke-width:4.208;stroke-linecap:round;stroke-miterlimit:10;} .st19{fill:#F47E60;stroke:#333333;stroke-width:3.607;stroke-miterlimit:10;} .st20{fill:#F47E60;stroke:#333333;stroke-width:4.0972;stroke-miterlimit:10;} .st21{fill:#F47E60;stroke:#333333;stroke-width:4.2085;stroke-miterlimit:10;} .st22{fill:#F8B26A;} .st23{fill:#FFFFFF;} .st24{fill:#FFFFFF;stroke:#FFFFFF;stroke-miterlimit:10;} .st25{fill:none;stroke:#FFFFFF;stroke-width:2;stroke-linecap:round;stroke-miterlimit:10;} .st26{fill:#E0E0E0;stroke:#332518;stroke-width:4;stroke-linecap:round;stroke-miterlimit:10;} .st27{fill:#66503A;} .st28{fill:#666666;} .st29{fill:#FFFFFF;stroke:#E0E0E0;stroke-width:5;stroke-linecap:round;stroke-miterlimit:10;} .st30{fill:none;stroke:#666666;stroke-width:4;stroke-miterlimit:10;stroke-dasharray:7.8519,7.8519;} .st31{fill:#F8B26A;stroke:#F47E60;stroke-width:4;stroke-miterlimit:10;} .st32{fill:none;stroke:#C33737;stroke-width:8;stroke-miterlimit:10;} .st33{fill:#A0C8D7;} .st34{fill:#F47E60;} .st35{fill:#C33737;stroke:#E15B64;stroke-width:5;stroke-miterlimit:10;} .st36{fill:#4A3827;} .st37{opacity:0.5;} .st38{fill:none;stroke:#000000;stroke-width:2.2018;stroke-miterlimit:10;} .st39{fill:none;stroke:#000000;stroke-width:2.2018;stroke-miterlimit:10;stroke-dasharray:4.7318,4.7318;} .st40{fill:none;stroke:#333333;stroke-width:7.4066;stroke-miterlimit:10;} .st41{fill:none;stroke:#333333;stroke-width:7.6862;stroke-miterlimit:10;} .st42{fill:#F8B26A;stroke:#333333;stroke-width:4;stroke-miterlimit:10;} .st43{fill:#F5E6C8;stroke:#333333;stroke-width:4;stroke-miterlimit:10;} .st44{fill:none;stroke:#333333;stroke-width:4;stroke-miterlimit:10;} .st45{opacity:0.2;} .st46{fill:none;stroke:#332518;stroke-width:4;stroke-linecap:round;stroke-miterlimit:10;} .st47{fill-rule:evenodd;clip-rule:evenodd;fill:#B5B5B5;} .st48{fill:#FFFFFF;stroke:#FFFFFF;stroke-width:0.6282;stroke-miterlimit:10;} .st49{fill:none;stroke:#FFFFFF;stroke-width:1.2563;stroke-linecap:round;stroke-miterlimit:10;} .st50{opacity:0.6;fill:#F5E169;} .st51{fill:none;} .st52{fill:#F8B26A;stroke:#333333;stroke-width:3.6728;stroke-linejoin:round;stroke-miterlimit:10;} .st53{fill:none;stroke:#E0E0E0;stroke-width:1.5;stroke-miterlimit:10;} .st54{fill:#66503A;stroke:#4A3827;stroke-width:3;stroke-miterlimit:10;} .st55{fill:none;stroke:#4A3827;stroke-width:3;stroke-miterlimit:10;} .st56{fill:none;stroke:#333333;stroke-width:3.1166;stroke-linecap:round;stroke-miterlimit:10;} .st57{fill:#999999;stroke:#333333;stroke-width:3;stroke-miterlimit:10;} .st58{fill:#E0E0E0;stroke:#333333;stroke-width:3.5653;stroke-linecap:round;stroke-miterlimit:10;} .st59{fill:#666666;stroke:#333333;stroke-width:3.5653;stroke-linecap:round;stroke-miterlimit:10;} .st60{fill:none;stroke:#333333;stroke-width:3;stroke-miterlimit:10;} .st61{fill:#E0E0E0;stroke:#333333;stroke-width:3.1759;stroke-linecap:round;stroke-miterlimit:10;} .st62{fill:#666666;stroke:#333333;stroke-width:3.1759;stroke-linecap:round;stroke-miterlimit:10;} .st63{fill:#E0E0E0;stroke:#333333;stroke-width:3.1886;stroke-linecap:round;stroke-miterlimit:10;} .st64{fill:#666666;stroke:#333333;stroke-width:3.1886;stroke-linecap:round;stroke-miterlimit:10;} .st65{fill:#E0E0E0;stroke:#333333;stroke-width:3.1503;stroke-linecap:round;stroke-miterlimit:10;} .st66{fill:#666666;stroke:#333333;stroke-width:3.1503;stroke-linecap:round;stroke-miterlimit:10;} .st67{fill:#FFFFFF;stroke:#333333;stroke-width:4;stroke-miterlimit:10;} .st68{fill:none;stroke:#849B87;stroke-width:4;stroke-linecap:round;stroke-miterlimit:10;} .st69{fill:#FFFFFF;stroke:#333333;stroke-width:3.9519;stroke-miterlimit:10;} .st70{fill:none;stroke:#E15B64;stroke-width:3.9519;stroke-linecap:round;stroke-miterlimit:10;} .st71{fill:#FFFFFF;stroke:#333333;stroke-width:3.9841;stroke-miterlimit:10;} .st72{fill:#C33737;} .st73{fill:none;stroke:#E15B64;stroke-width:9.8945;stroke-miterlimit:10;} .st74{fill:#ABBD81;stroke:#333333;stroke-width:2.9913;stroke-linecap:round;stroke-miterlimit:10;} .st75{fill:#66503A;stroke:#333333;stroke-width:2.9913;stroke-linecap:round;stroke-miterlimit:10;} .st76{fill:#E0E0E0;stroke:#333333;stroke-width:2.8537;stroke-linecap:round;stroke-miterlimit:10;} .st77{fill:#666666;stroke:#333333;stroke-width:2.8537;stroke-linecap:round;stroke-miterlimit:10;} .st78{fill:#E0E0E0;stroke:#333333;stroke-width:3.1909;stroke-linecap:round;stroke-miterlimit:10;} .st79{fill:#666666;stroke:#333333;stroke-width:3.1909;stroke-linecap:round;stroke-miterlimit:10;} .st80{fill:#666666;stroke:#333333;stroke-width:4.9453;stroke-linecap:round;stroke-miterlimit:10;} .st81{fill:#F5E6C8;stroke:#333333;stroke-width:4.0165;stroke-linecap:round;stroke-linejoin:round;stroke-miterlimit:10;} .st82{fill:#E0E0E0;stroke:#333333;stroke-width:3;stroke-miterlimit:10;} .st83{fill:#666666;stroke:#333333;stroke-width:3;stroke-miterlimit:10;} .st84{fill:#F5E6C8;stroke:#333333;stroke-miterlimit:10;} .st85{fill:#F8B26A;stroke:#333333;stroke-miterlimit:10;} .st86{fill:#77A4BD;} .st87{fill:none;stroke:#333333;stroke-width:2.3991;stroke-miterlimit:10;} .st88{fill:#666666;stroke:#333333;stroke-width:5.1406;stroke-linecap:round;stroke-miterlimit:10;} .st89{fill:#66503A;stroke:#333333;stroke-width:3;stroke-linecap:round;stroke-miterlimit:10;}</style><g style="transform-origin: 50px 50px 0px;"><g><g class="ld ld-fade" style="transform-origin: 50px 50px 0px; animation-duration: 1s; animation-delay: -0.970588s; animation-direction: normal;"><path class="st22" d="M44.005,11.841c-9.152,0-16.598,7.446-16.598,16.598c0,9.152,7.446,16.599,16.598,16.599 c9.152,0,16.599-7.446,16.599-16.599C60.603,19.287,53.157,11.841,44.005,11.841z" fill="rgb(248, 178, 106)" style="fill: rgb(248, 178, 106);"></path></g><g class="ld ld-fade" style="transform-origin: 50px 50px 0px; animation-duration: 1s; animation-delay: -0.941176s; animation-direction: normal;"><path class="st4" d="M44.005,8.532c-10.977,0-19.906,8.93-19.906,19.906s8.93,19.907,19.906,19.907 c10.977,0,19.907-8.931,19.907-19.907S54.981,8.532,44.005,8.532z M44.005,45.037c-9.152,0-16.598-7.446-16.598-16.599 c0-9.152,7.446-16.598,16.598-16.598c9.152,0,16.599,7.446,16.599,16.598C60.603,37.591,53.157,45.037,44.005,45.037z" fill="rgb(245, 230, 200)" style="fill: rgb(245, 230, 200);"></path></g><g class="ld ld-fade" style="transform-origin: 50px 50px 0px; animation-duration: 1s; animation-delay: -0.911765s; animation-direction: normal;"><path class="st4" d="M45.594,26.565c-2.413-0.908-3.406-1.504-3.406-2.44c0-0.795,0.596-1.59,2.441-1.59 c1.013,0,1.845,0.161,2.516,0.36c0.88,0.262,1.799-0.283,2.027-1.173c0.226-0.883-0.311-1.769-1.193-2.001 c-0.703-0.185-1.54-0.319-2.556-0.365V18.25c0-0.768-0.623-1.391-1.391-1.391c-0.768,0-1.391,0.623-1.391,1.391v1.305 c-3.037,0.596-4.797,2.554-4.797,5.052c0,2.753,2.072,4.172,5.109,5.194c2.101,0.71,3.008,1.391,3.008,2.469 c0,1.136-1.107,1.76-2.724,1.76c-1.107,0-2.153-0.215-3.07-0.527c-0.901-0.307-1.876,0.189-2.112,1.111l-0.034,0.133 c-0.214,0.835,0.25,1.698,1.069,1.966c0.987,0.324,2.186,0.555,3.409,0.609v1.306c0,0.768,0.623,1.391,1.391,1.391h0.001 c0.768,0,1.391-0.623,1.391-1.391v-1.505c3.263-0.568,5.052-2.724,5.052-5.251C50.335,29.319,48.972,27.758,45.594,26.565z" fill="rgb(245, 230, 200)" style="fill: rgb(245, 230, 200);"></path></g></g></g><g style="transform-origin: 50px 50px 0px;"><g><g class="ld ld-fade" style="transform-origin: 50px 50px 0px; animation-duration: 1s; animation-delay: -0.882353s; animation-direction: normal;"><path class="st22" d="M72.593,19.141c-9.152,0-16.598,7.446-16.598,16.598c0,9.152,7.446,16.599,16.598,16.599 c9.152,0,16.599-7.446,16.599-16.599C89.191,26.587,81.745,19.141,72.593,19.141z" fill="rgb(248, 178, 106)" style="fill: rgb(248, 178, 106);"></path></g><g class="ld ld-fade" style="transform-origin: 50px 50px 0px; animation-duration: 1s; animation-delay: -0.852941s; animation-direction: normal;"><path class="st4" d="M72.593,15.833c-10.977,0-19.906,8.93-19.906,19.906s8.93,19.907,19.906,19.907 c10.977,0,19.907-8.931,19.907-19.907S83.569,15.833,72.593,15.833z M72.593,52.338c-9.152,0-16.598-7.446-16.598-16.599 c0-9.152,7.446-16.598,16.598-16.598c9.152,0,16.599,7.446,16.599,16.598C89.191,44.891,81.745,52.338,72.593,52.338z" fill="rgb(245, 230, 200)" style="fill: rgb(245, 230, 200);"></path></g><g class="ld ld-fade" style="transform-origin: 50px 50px 0px; animation-duration: 1s; animation-delay: -0.823529s; animation-direction: normal;"><path class="st4" d="M74.182,33.865c-2.412-0.908-3.406-1.504-3.406-2.44c0-0.795,0.596-1.59,2.441-1.59 c1.013,0,1.845,0.161,2.516,0.36c0.88,0.262,1.799-0.283,2.027-1.173c0.226-0.883-0.311-1.769-1.193-2.001 c-0.703-0.185-1.54-0.319-2.556-0.365V25.55c0-0.768-0.623-1.391-1.391-1.391c-0.768,0-1.391,0.623-1.391,1.391v1.305 c-3.037,0.596-4.797,2.554-4.797,5.052c0,2.753,2.072,4.172,5.109,5.194c2.101,0.71,3.008,1.391,3.008,2.469 c0,1.136-1.107,1.76-2.724,1.76c-1.107,0-2.153-0.215-3.07-0.527c-0.901-0.307-1.876,0.189-2.112,1.111l-0.034,0.133 c-0.214,0.835,0.25,1.698,1.069,1.966c0.987,0.324,2.186,0.555,3.409,0.609v1.306c0,0.768,0.623,1.391,1.391,1.391h0.001 c0.768,0,1.391-0.623,1.391-1.391v-1.505c3.263-0.568,5.052-2.724,5.052-5.251C78.923,36.619,77.56,35.058,74.182,33.865z" fill="rgb(245, 230, 200)" style="fill: rgb(245, 230, 200);"></path></g></g></g><g style="transform-origin: 50px 50px 0px;"><g><g class="ld ld-fade" style="transform-origin: 50px 50px 0px; animation-duration: 1s; animation-delay: -0.794118s; animation-direction: normal;"><path class="st22" d="M55.995,31.154c-9.152,0-16.598,7.446-16.598,16.598c0,9.152,7.446,16.599,16.598,16.599 c9.152,0,16.599-7.446,16.599-16.599C72.593,38.6,65.147,31.154,55.995,31.154z" fill="rgb(248, 178, 106)" style="fill: rgb(248, 178, 106);"></path></g><g class="ld ld-fade" style="transform-origin: 50px 50px 0px; animation-duration: 1s; animation-delay: -0.764706s; animation-direction: normal;"><path class="st4" d="M55.995,27.846c-10.977,0-19.906,8.93-19.906,19.906s8.93,19.907,19.906,19.907 c10.977,0,19.907-8.931,19.907-19.907S66.971,27.846,55.995,27.846z M55.995,64.351c-9.152,0-16.598-7.446-16.598-16.599 c0-9.152,7.446-16.598,16.598-16.598c9.152,0,16.599,7.446,16.599,16.598C72.593,56.905,65.147,64.351,55.995,64.351z" fill="rgb(245, 230, 200)" style="fill: rgb(245, 230, 200);"></path></g><g class="ld ld-fade" style="transform-origin: 50px 50px 0px; animation-duration: 1s; animation-delay: -0.735294s; animation-direction: normal;"><path class="st4" d="M57.584,45.879c-2.413-0.908-3.406-1.504-3.406-2.44c0-0.795,0.596-1.59,2.441-1.59 c1.013,0,1.845,0.161,2.516,0.36c0.88,0.262,1.799-0.283,2.027-1.173c0.226-0.883-0.311-1.769-1.193-2.001 c-0.703-0.185-1.54-0.319-2.556-0.365v-1.107c0-0.768-0.623-1.391-1.391-1.391c-0.768,0-1.391,0.623-1.391,1.391v1.305 c-3.037,0.596-4.797,2.554-4.797,5.052c0,2.753,2.072,4.172,5.109,5.194c2.101,0.71,3.008,1.391,3.008,2.469 c0,1.136-1.107,1.76-2.724,1.76c-1.107,0-2.153-0.215-3.07-0.527c-0.901-0.307-1.876,0.189-2.112,1.111l-0.034,0.133 c-0.214,0.835,0.25,1.698,1.069,1.966c0.987,0.324,2.186,0.555,3.409,0.609v1.306c0,0.768,0.623,1.391,1.391,1.391h0.001 c0.768,0,1.391-0.623,1.391-1.391v-1.505c3.263-0.568,5.052-2.724,5.052-5.251C62.325,48.632,60.962,47.071,57.584,45.879z" fill="rgb(245, 230, 200)" style="fill: rgb(245, 230, 200);"></path></g></g></g><g style="transform-origin: 50px 50px 0px;"><g><g class="ld ld-fade" style="transform-origin: 50px 50px 0px; animation-duration: 1s; animation-delay: -0.705882s; animation-direction: normal;"><path class="st22" d="M27.406,28.439c-9.152,0-16.598,7.446-16.598,16.598c0,9.152,7.446,16.599,16.598,16.599 c9.152,0,16.599-7.446,16.599-16.599C44.005,35.885,36.559,28.439,27.406,28.439z" fill="rgb(248, 178, 106)" style="fill: rgb(248, 178, 106);"></path></g><g class="ld ld-fade" style="transform-origin: 50px 50px 0px; animation-duration: 1s; animation-delay: -0.676471s; animation-direction: normal;"><path class="st4" d="M27.406,25.131C16.43,25.131,7.5,34.061,7.5,45.037s8.93,19.907,19.906,19.907 c10.977,0,19.907-8.931,19.907-19.907S38.383,25.131,27.406,25.131z M27.406,61.636c-9.152,0-16.598-7.446-16.598-16.599 c0-9.152,7.446-16.598,16.598-16.598c9.152,0,16.599,7.446,16.599,16.598C44.005,54.189,36.559,61.636,27.406,61.636z" fill="rgb(245, 230, 200)" style="fill: rgb(245, 230, 200);"></path></g><g class="ld ld-fade" style="transform-origin: 50px 50px 0px; animation-duration: 1s; animation-delay: -0.647059s; animation-direction: normal;"><path class="st4" d="M28.996,43.163c-2.413-0.908-3.406-1.504-3.406-2.44c0-0.795,0.596-1.59,2.441-1.59 c1.013,0,1.845,0.161,2.516,0.36c0.88,0.262,1.799-0.283,2.027-1.173c0.226-0.883-0.311-1.769-1.193-2.001 c-0.703-0.185-1.54-0.319-2.556-0.365v-1.107c0-0.768-0.623-1.391-1.391-1.391s-1.391,0.623-1.391,1.391v1.305 c-3.037,0.596-4.797,2.554-4.797,5.052c0,2.753,2.072,4.172,5.109,5.194c2.101,0.71,3.008,1.391,3.008,2.469 c0,1.136-1.107,1.76-2.724,1.76c-1.107,0-2.153-0.215-3.07-0.527c-0.901-0.307-1.876,0.189-2.112,1.111l-0.034,0.133 c-0.214,0.835,0.25,1.698,1.069,1.966c0.987,0.324,2.186,0.555,3.409,0.609v1.306c0,0.768,0.623,1.391,1.391,1.391h0.001 c0.768,0,1.391-0.623,1.391-1.391v-1.505c3.263-0.568,5.052-2.724,5.052-5.251C33.736,45.917,32.373,44.356,28.996,43.163z" fill="rgb(245, 230, 200)" style="fill: rgb(245, 230, 200);"></path></g></g></g><g style="transform-origin: 50px 50px 0px;"><g><g class="ld ld-fade" style="transform-origin: 50px 50px 0px; animation-duration: 1s; animation-delay: -0.617647s; animation-direction: normal;"><path class="st22" d="M36.088,54.963c-9.152,0-16.598,7.446-16.598,16.598c0,9.152,7.446,16.599,16.598,16.599 c9.152,0,16.599-7.446,16.599-16.599C52.686,62.408,45.24,54.963,36.088,54.963z" fill="rgb(248, 178, 106)" style="fill: rgb(248, 178, 106);"></path></g><g class="ld ld-fade" style="transform-origin: 50px 50px 0px; animation-duration: 1s; animation-delay: -0.588235s; animation-direction: normal;"><path class="st4" d="M36.088,51.654c-10.976,0-19.906,8.93-19.906,19.906s8.93,19.907,19.906,19.907 c10.977,0,19.907-8.931,19.907-19.907S47.064,51.654,36.088,51.654z M36.088,88.159c-9.152,0-16.598-7.446-16.598-16.599 c0-9.152,7.446-16.598,16.598-16.598c9.152,0,16.599,7.446,16.599,16.598C52.686,80.713,45.24,88.159,36.088,88.159z" fill="rgb(245, 230, 200)" style="fill: rgb(245, 230, 200);"></path></g><g class="ld ld-fade" style="transform-origin: 50px 50px 0px; animation-duration: 1s; animation-delay: -0.558824s; animation-direction: normal;"><path class="st4" d="M37.677,69.687c-2.413-0.908-3.406-1.504-3.406-2.44c0-0.795,0.596-1.59,2.441-1.59 c1.013,0,1.845,0.161,2.516,0.36c0.88,0.262,1.799-0.283,2.027-1.173c0.226-0.883-0.311-1.769-1.193-2.001 c-0.703-0.185-1.54-0.319-2.556-0.365v-1.107c0-0.768-0.623-1.391-1.391-1.391c-0.768,0-1.391,0.623-1.391,1.391v1.305 c-3.037,0.596-4.797,2.554-4.797,5.052c0,2.753,2.072,4.172,5.109,5.194c2.101,0.71,3.008,1.391,3.008,2.469 c0,1.136-1.107,1.76-2.724,1.76c-1.107,0-2.153-0.215-3.07-0.527c-0.901-0.307-1.876,0.189-2.112,1.111l-0.034,0.133 c-0.214,0.835,0.25,1.698,1.069,1.966c0.987,0.324,2.186,0.555,3.409,0.609v1.306c0,0.768,0.623,1.391,1.391,1.391h0.001 c0.768,0,1.391-0.623,1.391-1.391v-1.505c3.263-0.568,5.052-2.724,5.052-5.251C42.418,72.44,41.055,70.879,37.677,69.687z" fill="rgb(245, 230, 200)" style="fill: rgb(245, 230, 200);"></path></g></g></g><g style="transform-origin: 50px 50px 0px;"><g><g class="ld ld-fade" style="transform-origin: 50px 50px 0px; animation-duration: 1s; animation-delay: -0.529412s; animation-direction: normal;"><path class="st22" d="M62.324,52.223c-9.152,0-16.598,7.446-16.598,16.598c0,9.152,7.446,16.599,16.598,16.599 c9.152,0,16.599-7.446,16.599-16.599C78.923,59.668,71.476,52.223,62.324,52.223z" fill="rgb(248, 178, 106)" style="fill: rgb(248, 178, 106);"></path></g><g class="ld ld-fade" style="transform-origin: 50px 50px 0px; animation-duration: 1s; animation-delay: -0.5s; animation-direction: normal;"><path class="st4" d="M62.324,48.914c-10.977,0-19.906,8.93-19.906,19.906s8.93,19.907,19.906,19.907 c10.977,0,19.907-8.931,19.907-19.907S73.301,48.914,62.324,48.914z M62.324,85.419c-9.152,0-16.598-7.446-16.598-16.599 c0-9.152,7.446-16.598,16.598-16.598c9.152,0,16.599,7.446,16.599,16.598C78.923,77.973,71.476,85.419,62.324,85.419z" fill="rgb(245, 230, 200)" style="fill: rgb(245, 230, 200);"></path></g><g class="ld ld-fade" style="transform-origin: 50px 50px 0px; animation-duration: 1s; animation-delay: -0.470588s; animation-direction: normal;"><path class="st4" d="M63.914,66.947c-2.413-0.908-3.406-1.504-3.406-2.44c0-0.795,0.596-1.59,2.441-1.59 c1.013,0,1.845,0.161,2.516,0.36c0.88,0.262,1.799-0.283,2.027-1.173c0.226-0.883-0.311-1.769-1.193-2.001 c-0.703-0.185-1.54-0.319-2.556-0.365v-1.107c0-0.768-0.623-1.391-1.391-1.391s-1.391,0.623-1.391,1.391v1.305 c-3.037,0.596-4.797,2.554-4.797,5.052c0,2.753,2.072,4.172,5.109,5.194c2.101,0.71,3.008,1.391,3.008,2.469 c0,1.136-1.107,1.76-2.724,1.76c-1.107,0-2.153-0.215-3.07-0.527c-0.901-0.307-1.876,0.189-2.112,1.111l-0.034,0.133 c-0.214,0.835,0.25,1.698,1.069,1.966c0.987,0.324,2.186,0.555,3.409,0.609v1.306c0,0.768,0.623,1.391,1.391,1.391h0.001 c0.768,0,1.391-0.623,1.391-1.391v-1.505c3.263-0.568,5.052-2.724,5.052-5.251C68.654,69.7,67.291,68.14,63.914,66.947z" fill="rgb(245, 230, 200)" style="fill: rgb(245, 230, 200);"></path></g></g></g><metadata xmlns:d="https://loading.io/stock/" class="ld ld-fade" style="transform-origin: 50px 50px 0px; animation-duration: 1s; animation-delay: -0.441176s; animation-direction: normal;">
<d:name class="ld ld-fade" style="transform-origin: 50px 50px 0px; animation-duration: 1s; animation-delay: -0.411765s; animation-direction: normal;">coin</d:name>
<d:tags class="ld ld-fade" style="transform-origin: 50px 50px 0px; animation-duration: 1s; animation-delay: -0.382353s; animation-direction: normal;">coin,dollar,money,bucks,currency,price,value</d:tags>
<d:license class="ld ld-fade" style="transform-origin: 50px 50px 0px; animation-duration: 1s; animation-delay: -0.352941s; animation-direction: normal;">cc-by</d:license>
<d:slug class="ld ld-fade" style="transform-origin: 50px 50px 0px; animation-duration: 1s; animation-delay: -0.323529s; animation-direction: normal;">399d8z</d:slug>
</metadata></g></g></g></g><style type="text/css" class="ld ld-fade" style="transform-origin: 50px 50px 0px; animation-duration: 1s; animation-delay: -0.294118s; animation-direction: normal;">path,ellipse,circle,rect,polygon,polyline,line { stroke-width: 0; }@keyframes ld-fade {
  0% {
    opacity: 1;
  }
  100% {
    opacity: 0;
  }
}
@-webkit-keyframes ld-fade {
  0% {
    opacity: 1;
  }
  100% {
    opacity: 0;
  }
}
.ld.ld-fade {
  -webkit-animation: ld-fade 1s infinite linear;
  animation: ld-fade 1s infinite linear;
}
</style></svg></svg>