<svg class="ldi-ebfm3l" width="200px"  height="200px"  xmlns="http://www.w3.org/2000/svg" xmlns:xlink="http://www.w3.org/1999/xlink" viewBox="0 0 100 100" preserveAspectRatio="xMidYMid" style="background: none;"><!--?xml version="1.0" encoding="utf-8"?--><!--Generator: Adobe Illustrator 21.0.0, SVG Export Plug-In . SVG Version: 6.00 Build 0)--><svg version="1.1" id="圖層_1" xmlns="http://www.w3.org/2000/svg" xmlns:xlink="http://www.w3.org/1999/xlink" x="0px" y="0px" viewBox="0 0 100 100" style="transform-origin: 50px 50px 0px;" xml:space="preserve"><g style="transform-origin: 50px 50px 0px;"><g style="transform-origin: 50px 50px 0px; transform: scale(0.6);"><g style="transform-origin: 50px 50px 0px;"><g><style type="text/css" class="ld ld-breath" style="transform-origin: 50px 50px 0px; animation-duration: 1s; animation-delay: -1s; animation-direction: normal;">.st0{fill:#F5E6C8;} .st1{fill:#F47E60;} .st2{fill:#C33737;} .st3{fill:#E0E0E0;} .st4{fill:#333333;} .st5{fill:#77A4BD;} .st6{fill:#A0C8D7;} .st7{fill:#666666;} .st8{fill:none;stroke:#E0E0E0;stroke-width:6;stroke-miterlimit:10;stroke-dasharray:5,5;} .st9{fill:#A0C8D7;stroke:#333333;stroke-width:2.6608;stroke-linejoin:round;stroke-miterlimit:10;} .st10{fill:#77A4BD;stroke:#333333;stroke-width:2.6608;stroke-linejoin:round;stroke-miterlimit:10;} .st11{fill:#E0E0E0;stroke:#333333;stroke-width:2.6608;stroke-linejoin:round;stroke-miterlimit:10;} .st12{fill:#666666;stroke:#333333;stroke-width:2.6608;stroke-linejoin:round;stroke-miterlimit:10;} .st13{fill:#E15B64;stroke:#000000;stroke-width:2.8604;stroke-miterlimit:10;} .st14{fill:none;stroke:#000000;stroke-width:7.2297;stroke-miterlimit:10;} .st15{fill:none;stroke:#333333;stroke-width:5;stroke-linecap:round;stroke-miterlimit:10;} .st16{fill:#F8B26A;stroke:#333333;stroke-width:3;stroke-miterlimit:10;} .st17{fill:#F5E6C8;stroke:#000000;stroke-width:3;stroke-linejoin:round;stroke-miterlimit:10;} .st18{fill:#F5E6C8;stroke:#000000;stroke-width:3;stroke-miterlimit:10;} .st19{fill:#FFFFFF;stroke:#000000;stroke-width:6;stroke-miterlimit:10;} .st20{fill:#666666;stroke:#333333;stroke-width:2.8414;} .st21{fill:#EEF4DC;stroke:#333333;stroke-width:4;} .st22{fill:#FFFFFF;stroke:#000000;stroke-width:5;stroke-miterlimit:10;} .st23{fill:#32AAB4;stroke:#000000;stroke-width:5;stroke-miterlimit:10;} .st24{fill:none;stroke:#FFFFFF;stroke-width:4;stroke-linecap:round;stroke-linejoin:round;} .st25{fill:#FFFFFF;} .st26{fill:#F8EAEC;stroke:#FFFFFF;} .st27{fill:#FFFFFF;stroke:#221E1F;stroke-width:8;stroke-miterlimit:10;} .st28{fill:#221E1F;} .st29{fill:#E90C59;stroke:#333333;stroke-width:4;} .st30{fill:#FE718D;stroke:#333333;stroke-width:4;} .st31{fill:#46DFF0;} .st32{fill:#03AFF3;stroke:#46DFF0;stroke-width:5;stroke-linecap:round;} .st33{fill:#EEF4DC;} .st34{fill:#E90C59;stroke:#E90C59;stroke-width:2;} .st35{fill:#FE718D;stroke:#FE718D;stroke-width:2;} .st36{fill:none;stroke:#46DFF0;stroke-width:5;stroke-linecap:round;} .st37{fill:#EBA523;stroke:#333333;stroke-width:4;stroke-linecap:round;stroke-linejoin:round;} .st38{fill:#E0E0E0;stroke:#333333;stroke-width:4;stroke-linecap:round;} .st39{fill:#F5E6C8;stroke:#333333;stroke-width:4;stroke-linecap:round;stroke-linejoin:round;} .st40{fill:#333333;stroke:#333333;stroke-width:4;stroke-linecap:round;stroke-linejoin:round;} .st41{fill:none;stroke:#333333;stroke-width:4;stroke-linecap:round;stroke-linejoin:round;} .st42{fill:#E0E0E0;stroke:#333333;stroke-width:3.0801;stroke-linecap:round;} .st43{fill:#EBA523;stroke:#333333;stroke-width:2.6855;stroke-linecap:round;stroke-linejoin:round;} .st44{fill:#E0E0E0;stroke:#333333;stroke-width:2.6855;stroke-linecap:round;} .st45{fill:#F5E6C8;stroke:#333333;stroke-width:2.6855;stroke-linecap:round;stroke-linejoin:round;} .st46{fill:#333333;stroke:#333333;stroke-width:2.6855;stroke-linecap:round;stroke-linejoin:round;} .st47{fill:none;stroke:#333333;stroke-width:2.6855;stroke-linecap:round;stroke-linejoin:round;} .st48{fill:#E0E0E0;stroke:#333333;stroke-width:3.3468;stroke-linecap:round;} .st49{fill:#666666;stroke:#333333;stroke-width:2.672;} .st50{fill:#E0E0E0;stroke:#333333;stroke-width:3.9;stroke-linecap:round;} .st51{fill:#666666;stroke:#333333;stroke-width:2.621;} .st52{fill:#333333;stroke:#333333;stroke-width:3.0406;} .st53{fill:#E0E0E0;stroke:#333333;stroke-width:2.8414;} .st54{fill:none;stroke:#333333;stroke-width:2.9737;} .st55{fill:#1BD112;} .st56{fill:none;} .st57{fill:#666666;stroke:#000000;stroke-width:3;stroke-miterlimit:10;} .st58{fill:#333333;stroke:#000000;stroke-width:3;stroke-miterlimit:10;} .st59{fill:#77A4BD;stroke:#333333;stroke-width:5;} .st60{fill:none;stroke:#000000;stroke-width:2.552;stroke-miterlimit:10;} .st61{fill:#4D4D4D;} .st62{fill:#E15B64;stroke:#000000;stroke-width:3;stroke-miterlimit:10;} .st63{fill:#F5E169;stroke:#000000;stroke-width:3;stroke-miterlimit:10;} .st64{fill:#ABBD81;} .st65{fill:#494B32;} .st66{fill:#A0C8D7;stroke:#000000;stroke-width:3;stroke-miterlimit:10;} .st67{fill:#77A4BD;stroke:#000000;stroke-width:3;stroke-miterlimit:10;} .st68{fill:#F47E60;stroke:#000000;stroke-width:3;stroke-miterlimit:10;} .st69{fill:#E0E0E0;stroke:#000000;stroke-width:3;stroke-linejoin:round;stroke-miterlimit:10;} .st70{fill:#666666;stroke:#000000;stroke-width:3;stroke-linejoin:round;stroke-miterlimit:10;} .st71{fill:#66503A;stroke:#000000;stroke-width:3;stroke-linejoin:round;stroke-miterlimit:10;} .st72{fill:#E0E0E0;stroke:#333333;stroke-width:3;stroke-miterlimit:10;} .st73{fill:#666666;stroke:#333333;stroke-width:3;stroke-miterlimit:10;} .st74{fill:#FFFFFF;stroke:#333333;stroke-width:3;stroke-miterlimit:10;} .st75{fill:none;stroke:#333333;stroke-width:3;stroke-miterlimit:10;} .st76{fill:#F5E6C8;stroke:#333333;stroke-width:3;stroke-miterlimit:10;} .st77{fill:#849B87;stroke:#000000;stroke-width:3;stroke-miterlimit:10;} .st78{fill:#F8B26A;stroke:#000000;stroke-width:3;stroke-miterlimit:10;} .st79{fill:#E15B64;} .st80{fill:#F5E6C8;stroke:#333333;stroke-width:8;stroke-miterlimit:10;} .st81{stroke:#000000;stroke-width:8;stroke-miterlimit:10;} .st82{fill:#666666;stroke:#333333;stroke-width:5;stroke-miterlimit:10;} .st83{fill:#E0E0E0;stroke:#333333;stroke-width:5;stroke-miterlimit:10;} .st84{fill:#E0E0E0;stroke:#000000;stroke-width:5.7838;stroke-miterlimit:10;} .st85{fill:#F47E60;stroke:#000000;stroke-width:5.7838;stroke-miterlimit:10;} .st86{fill:#F5E6C8;stroke:#000000;stroke-width:5.6519;stroke-miterlimit:10;} .st87{fill:none;stroke:#333333;stroke-width:5;stroke-miterlimit:10;} .st88{fill:#E0E0E0;stroke:#333333;stroke-width:4;stroke-miterlimit:10;} .st89{fill:#F47E60;stroke:#333333;stroke-width:4;stroke-miterlimit:10;} .st90{fill:#F5E6C8;stroke:#333333;stroke-width:4.0258;stroke-miterlimit:10;} .st91{fill:#66503A;stroke:#333333;stroke-width:4.0258;stroke-miterlimit:10;} .st92{fill:none;stroke:#333333;stroke-width:3.7219;stroke-miterlimit:10;} .st93{fill:none;stroke:#333333;stroke-width:4.881;stroke-miterlimit:10;} .st94{fill:#E15B64;stroke:#333333;stroke-width:4.6426;stroke-miterlimit:10;} .st95{fill:#F47E60;stroke:#333333;stroke-width:4.6426;stroke-miterlimit:10;} .st96{fill:#F8B26A;stroke:#333333;stroke-width:4.6426;stroke-miterlimit:10;} .st97{fill:#849B87;} .st98{fill:#F8B26A;} .st99{fill:#C33737;stroke:#000000;stroke-width:2.8604;stroke-miterlimit:10;} .st100{fill:#C33737;stroke:#000000;stroke-width:2.3193;stroke-miterlimit:10;} .st101{fill:#53BBEA;} .st102{fill:#DA5548;} .st103{fill:#F9CF5A;} .st104{fill:#67A648;} .st105{fill:#3790CE;} .st106{fill:#B93626;} .st107{fill:#8FD5E0;} .st108{fill:#E0782B;} .st109{fill:#5B9CC6;} .st110{fill:#871B19;} .st111{fill:#ED483B;} .st112{fill:#CACACA;} .st113{fill:#4B84C4;} .st114{fill:#C23D2B;} .st115{fill:#EBEBEB;} .st116{fill:#FFFFFF;stroke:#333333;stroke-width:2.5574;stroke-linejoin:round;stroke-miterlimit:10;} .st117{fill:#A3A3A3;} .st118{fill:none;stroke:#666666;stroke-width:8;stroke-miterlimit:10;} .st119{fill:none;stroke:#333333;stroke-width:8;stroke-miterlimit:10;} .st120{fill:none;stroke:#C33737;stroke-width:5.1949;stroke-miterlimit:10;} .st121{fill:#FFDC6C;} .st122{fill:#F5E169;} .st123{fill:none;stroke:#F5E169;stroke-miterlimit:10;} .st124{fill:#8A8A8A;} .st125{fill:#999999;} .st126{fill:#4A3827;} .st127{fill:#66503A;} .st128{fill:#C69C6D;} .st129{fill:#E0E0E0;stroke:#000000;stroke-width:3.7234;stroke-miterlimit:10;} .st130{fill:none;stroke:#000000;stroke-width:4;stroke-linecap:round;stroke-miterlimit:10;} .st131{fill:#E0E0E0;stroke:#333333;stroke-width:3.7234;stroke-miterlimit:10;} .st132{fill:none;stroke:#333333;stroke-width:4;stroke-linecap:round;stroke-miterlimit:10;} .st133{fill:#983733;} .st134{fill:#AAAAAA;}</style><g style="transform-origin: 50px 50px 0px;"><g><g class="ld ld-breath" style="transform-origin: 50px 50px 0px; animation-duration: 1s; animation-delay: -0.980392s; animation-direction: normal;"><path class="st1" d="M62.5,30.5l-25,43.3c3.7,2.2,8.1,3.5,12.7,3.5c13.8,0,25-11.2,25-25C75.3,42.9,70.1,34.7,62.5,30.5z" fill="rgb(244, 126, 96)" style="fill: rgb(244, 126, 96);"></path></g><g class="ld ld-breath" style="transform-origin: 50px 50px 0px; animation-duration: 1s; animation-delay: -0.960784s; animation-direction: normal;"><path class="st98" d="M50.3,27.2c-13.8,0-25,11.2-25,25c0,9.1,4.9,17.1,12.3,21.5l25-43.3C58.9,28.4,54.7,27.2,50.3,27.2z" fill="rgb(248, 178, 106)" style="fill: rgb(248, 178, 106);"></path></g><g class="ld ld-breath" style="transform-origin: 50px 50px 0px; animation-duration: 1s; animation-delay: -0.941176s; animation-direction: normal;"><path class="st121" d="M58,38.3l-16,27.7c2.4,1.5,5.2,2.3,8.2,2.3c8.8,0,16-7.2,16-16C66.3,46.2,63,41,58,38.3z" fill="rgb(255, 220, 108)" style="fill: rgb(255, 220, 108);"></path></g><g class="ld ld-breath" style="transform-origin: 50px 50px 0px; animation-duration: 1s; animation-delay: -0.921569s; animation-direction: normal;"><path class="st0" d="M50.3,36.2c-8.8,0-16,7.2-16,16c0,5.8,3.1,10.9,7.8,13.7l16-27.7C55.7,37,53.1,36.2,50.3,36.2z" fill="rgb(245, 230, 200)" style="fill: rgb(245, 230, 200);"></path></g></g></g><g style="transform-origin: 50px 50px 0px;"><g><g class="ld ld-breath" style="transform-origin: 50px 50px 0px; animation-duration: 1s; animation-delay: -0.901961s; animation-direction: normal;"><path class="st122" d="M71.4,80.5c0,0-2.7-1.8-2.7-4.1c0-2.3,2.7-4.1,2.7-4.1s2.7,1.8,2.7,4.1C74.1,78.6,71.4,80.5,71.4,80.5z" fill="rgb(245, 225, 105)" style="fill: rgb(245, 225, 105);"></path></g><g class="ld ld-breath" style="transform-origin: 50px 50px 0px; animation-duration: 1s; animation-delay: -0.882353s; animation-direction: normal;"><path class="st122" d="M73.9,77.4c0,0,1.8,2.7,4.1,2.7s4.1-2.7,4.1-2.7s-1.8-2.7-4.1-2.7C75.8,74.7,73.9,77.4,73.9,77.4z" fill="rgb(245, 225, 105)" style="fill: rgb(245, 225, 105);"></path></g><g class="ld ld-breath" style="transform-origin: 50px 50px 0px; animation-duration: 1s; animation-delay: -0.862745s; animation-direction: normal;"><path class="st122" d="M78,74c0,0-3.1-1.1-3.7-3.3c-0.6-2.2,1.5-4.7,1.5-4.7s3.1,1.1,3.7,3.3C80.2,71.5,78,74,78,74z" fill="rgb(245, 225, 105)" style="fill: rgb(245, 225, 105);"></path></g><g class="ld ld-breath" style="transform-origin: 50px 50px 0px; animation-duration: 1s; animation-delay: -0.843137s; animation-direction: normal;"><path class="st122" d="M79.7,70.4c0,0,2.5,2.1,4.7,1.5c2.2-0.6,3.3-3.7,3.3-3.7s-2.5-2.1-4.7-1.5C80.7,67.3,79.7,70.4,79.7,70.4z" fill="rgb(245, 225, 105)" style="fill: rgb(245, 225, 105);"></path></g><g class="ld ld-breath" style="transform-origin: 50px 50px 0px; animation-duration: 1s; animation-delay: -0.823529s; animation-direction: normal;"><path class="st122" d="M82.8,66.1c0,0-3.2-0.2-4.4-2.2s0.3-4.9,0.3-4.9s3.2,0.2,4.4,2.2C84.2,63.1,82.8,66.1,82.8,66.1z" fill="rgb(245, 225, 105)" style="fill: rgb(245, 225, 105);"></path></g><g class="ld ld-breath" style="transform-origin: 50px 50px 0px; animation-duration: 1s; animation-delay: -0.803922s; animation-direction: normal;"><path class="st122" d="M83.4,62.1c0,0,2.9,1.4,4.9,0.3c2-1.1,2.2-4.4,2.2-4.4s-2.9-1.4-4.9-0.3C83.6,58.9,83.4,62.1,83.4,62.1z" fill="rgb(245, 225, 105)" style="fill: rgb(245, 225, 105);"></path></g><g class="ld ld-breath" style="transform-origin: 50px 50px 0px; animation-duration: 1s; animation-delay: -0.784314s; animation-direction: normal;"><path class="st122" d="M85.3,57.1c0,0-3.2,0.6-4.8-1c-1.6-1.6-1-4.8-1-4.8s3.2-0.6,4.8,1S85.3,57.1,85.3,57.1z" fill="rgb(245, 225, 105)" style="fill: rgb(245, 225, 105);"></path></g><g class="ld ld-breath" style="transform-origin: 50px 50px 0px; animation-duration: 1s; animation-delay: -0.764706s; animation-direction: normal;"><path class="st122" d="M84.8,53.2c0,0,3.2,0.6,4.8-1c1.6-1.6,1-4.8,1-4.8s-3.2-0.6-4.8,1C84.2,50,84.8,53.2,84.8,53.2z" fill="rgb(245, 225, 105)" style="fill: rgb(245, 225, 105);"></path></g><g class="ld ld-breath" style="transform-origin: 50px 50px 0px; animation-duration: 1s; animation-delay: -0.745098s; animation-direction: normal;"><path class="st122" d="M85.4,47.9c0,0-2.9,1.4-4.9,0.3c-2-1.1-2.2-4.4-2.2-4.4s2.9-1.4,4.9-0.3C85.1,44.6,85.4,47.9,85.4,47.9z" fill="rgb(245, 225, 105)" style="fill: rgb(245, 225, 105);"></path></g><g class="ld ld-breath" style="transform-origin: 50px 50px 0px; animation-duration: 1s; animation-delay: -0.72549s; animation-direction: normal;"><path class="st122" d="M83.9,44.2c0,0,3.2-0.2,4.4-2.2C89.4,40,88,37,88,37s-3.2,0.2-4.4,2.2C82.5,41.2,83.9,44.2,83.9,44.2z" fill="rgb(245, 225, 105)" style="fill: rgb(245, 225, 105);"></path></g><g class="ld ld-breath" style="transform-origin: 50px 50px 0px; animation-duration: 1s; animation-delay: -0.705882s; animation-direction: normal;"><path class="st122" d="M83.1,38.9c0,0-2.5,2.1-4.7,1.5c-2.2-0.6-3.3-3.7-3.3-3.7s2.5-2.1,4.7-1.5C82,35.9,83.1,38.9,83.1,38.9z" fill="rgb(245, 225, 105)" style="fill: rgb(245, 225, 105);"></path></g><g class="ld ld-breath" style="transform-origin: 50px 50px 0px; animation-duration: 1s; animation-delay: -0.686275s; animation-direction: normal;"><path class="st122" d="M80.7,35.7c0,0,3.1-1.1,3.7-3.3s-1.5-4.7-1.5-4.7s-3.1,1.1-3.7,3.3C78.6,33.2,80.7,35.7,80.7,35.7z" fill="rgb(245, 225, 105)" style="fill: rgb(245, 225, 105);"></path></g><g class="ld ld-breath" style="transform-origin: 50px 50px 0px; animation-duration: 1s; animation-delay: -0.666667s; animation-direction: normal;"><path class="st122" d="M78.5,30.9c0,0-1.8,2.7-4.1,2.7s-4.1-2.7-4.1-2.7s1.8-2.7,4.1-2.7C76.7,28.2,78.5,30.9,78.5,30.9z" fill="rgb(245, 225, 105)" style="fill: rgb(245, 225, 105);"></path></g><g class="ld ld-breath" style="transform-origin: 50px 50px 0px; animation-duration: 1s; animation-delay: -0.647059s; animation-direction: normal;"><path class="st122" d="M75.4,28.4c0,0,2.7-1.8,2.7-4.1c0-2.3-2.7-4.1-2.7-4.1s-2.7,1.8-2.7,4.1S75.4,28.4,75.4,28.4z" fill="rgb(245, 225, 105)" style="fill: rgb(245, 225, 105);"></path></g><g class="ld ld-breath" style="transform-origin: 50px 50px 0px; animation-duration: 1s; animation-delay: -0.627451s; animation-direction: normal;"><path class="st122" d="M72.1,24.2c0,0-1.1,3.1-3.3,3.7s-4.7-1.5-4.7-1.5s1.1-3.1,3.3-3.7C69.6,22.1,72.1,24.2,72.1,24.2z" fill="rgb(245, 225, 105)" style="fill: rgb(245, 225, 105);"></path></g><g class="ld ld-breath" style="transform-origin: 50px 50px 0px; animation-duration: 1s; animation-delay: -0.607843s; animation-direction: normal;"><path class="st122" d="M68.4,22.6c0,0,2.1-2.5,1.5-4.7s-3.7-3.3-3.7-3.3s-2.1,2.5-1.5,4.7S68.4,22.6,68.4,22.6z" fill="rgb(245, 225, 105)" style="fill: rgb(245, 225, 105);"></path></g><g class="ld ld-breath" style="transform-origin: 50px 50px 0px; animation-duration: 1s; animation-delay: -0.588235s; animation-direction: normal;"><path class="st123" d="M68.6,22.3c10,6.2,16.6,17.2,16.6,29.8c0,15.4-10,28.5-23.8,33.2" stroke="rgb(245, 225, 105)" style="stroke: rgb(245, 225, 105);"></path></g></g></g><g style="transform-origin: 50px 50px 0px;"><g><g class="ld ld-breath" style="transform-origin: 50px 50px 0px; animation-duration: 1s; animation-delay: -0.568627s; animation-direction: normal;"><path class="st122" d="M28.6,80.5c0,0,2.7-1.8,2.7-4.1c0-2.3-2.7-4.1-2.7-4.1s-2.7,1.8-2.7,4.1C25.9,78.6,28.6,80.5,28.6,80.5z" fill="rgb(245, 225, 105)" style="fill: rgb(245, 225, 105);"></path></g><g class="ld ld-breath" style="transform-origin: 50px 50px 0px; animation-duration: 1s; animation-delay: -0.54902s; animation-direction: normal;"><path class="st122" d="M26.1,77.4c0,0-1.8,2.7-4.1,2.7s-4.1-2.7-4.1-2.7s1.8-2.7,4.1-2.7S26.1,77.4,26.1,77.4z" fill="rgb(245, 225, 105)" style="fill: rgb(245, 225, 105);"></path></g><g class="ld ld-breath" style="transform-origin: 50px 50px 0px; animation-duration: 1s; animation-delay: -0.529412s; animation-direction: normal;"><path class="st122" d="M22,74c0,0,3.1-1.1,3.7-3.3c0.6-2.2-1.5-4.7-1.5-4.7s-3.1,1.1-3.7,3.3C19.8,71.5,22,74,22,74z" fill="rgb(245, 225, 105)" style="fill: rgb(245, 225, 105);"></path></g><g class="ld ld-breath" style="transform-origin: 50px 50px 0px; animation-duration: 1s; animation-delay: -0.509804s; animation-direction: normal;"><path class="st122" d="M20.3,70.4c0,0-2.5,2.1-4.7,1.5s-3.3-3.7-3.3-3.7s2.5-2.1,4.7-1.5S20.3,70.4,20.3,70.4z" fill="rgb(245, 225, 105)" style="fill: rgb(245, 225, 105);"></path></g><g class="ld ld-breath" style="transform-origin: 50px 50px 0px; animation-duration: 1s; animation-delay: -0.490196s; animation-direction: normal;"><path class="st122" d="M17.2,66.1c0,0,3.2-0.2,4.4-2.2c1.1-2-0.3-4.9-0.3-4.9s-3.2,0.2-4.4,2.2C15.8,63.1,17.2,66.1,17.2,66.1z" fill="rgb(245, 225, 105)" style="fill: rgb(245, 225, 105);"></path></g><g class="ld ld-breath" style="transform-origin: 50px 50px 0px; animation-duration: 1s; animation-delay: -0.470588s; animation-direction: normal;"><path class="st122" d="M16.6,62.1c0,0-2.9,1.4-4.9,0.3c-2-1.1-2.2-4.4-2.2-4.4s2.9-1.4,4.9-0.3C16.4,58.9,16.6,62.1,16.6,62.1z" fill="rgb(245, 225, 105)" style="fill: rgb(245, 225, 105);"></path></g><g class="ld ld-breath" style="transform-origin: 50px 50px 0px; animation-duration: 1s; animation-delay: -0.45098s; animation-direction: normal;"><path class="st122" d="M14.7,57.1c0,0,3.2,0.6,4.8-1c1.6-1.6,1-4.8,1-4.8s-3.2-0.6-4.8,1S14.7,57.1,14.7,57.1z" fill="rgb(245, 225, 105)" style="fill: rgb(245, 225, 105);"></path></g><g class="ld ld-breath" style="transform-origin: 50px 50px 0px; animation-duration: 1s; animation-delay: -0.431373s; animation-direction: normal;"><path class="st122" d="M15.2,53.2c0,0-3.2,0.6-4.8-1s-1-4.8-1-4.8s3.2-0.6,4.8,1S15.2,53.2,15.2,53.2z" fill="rgb(245, 225, 105)" style="fill: rgb(245, 225, 105);"></path></g><g class="ld ld-breath" style="transform-origin: 50px 50px 0px; animation-duration: 1s; animation-delay: -0.411765s; animation-direction: normal;"><path class="st122" d="M14.6,47.9c0,0,2.9,1.4,4.9,0.3c2-1.1,2.2-4.4,2.2-4.4s-2.9-1.4-4.9-0.3C14.9,44.6,14.6,47.9,14.6,47.9z" fill="rgb(245, 225, 105)" style="fill: rgb(245, 225, 105);"></path></g><g class="ld ld-breath" style="transform-origin: 50px 50px 0px; animation-duration: 1s; animation-delay: -0.392157s; animation-direction: normal;"><path class="st122" d="M16.1,44.2c0,0-3.2-0.2-4.4-2.2C10.6,40,12,37,12,37s3.2,0.2,4.4,2.2C17.5,41.2,16.1,44.2,16.1,44.2z" fill="rgb(245, 225, 105)" style="fill: rgb(245, 225, 105);"></path></g><g class="ld ld-breath" style="transform-origin: 50px 50px 0px; animation-duration: 1s; animation-delay: -0.372549s; animation-direction: normal;"><path class="st122" d="M16.9,38.9c0,0,2.5,2.1,4.7,1.5c2.2-0.6,3.3-3.7,3.3-3.7s-2.5-2.1-4.7-1.5C18,35.9,16.9,38.9,16.9,38.9z" fill="rgb(245, 225, 105)" style="fill: rgb(245, 225, 105);"></path></g><g class="ld ld-breath" style="transform-origin: 50px 50px 0px; animation-duration: 1s; animation-delay: -0.352941s; animation-direction: normal;"><path class="st122" d="M19.3,35.7c0,0-3.1-1.1-3.7-3.3s1.5-4.7,1.5-4.7s3.1,1.1,3.7,3.3C21.4,33.2,19.3,35.7,19.3,35.7z" fill="rgb(245, 225, 105)" style="fill: rgb(245, 225, 105);"></path></g><g class="ld ld-breath" style="transform-origin: 50px 50px 0px; animation-duration: 1s; animation-delay: -0.333333s; animation-direction: normal;"><path class="st122" d="M21.5,30.9c0,0,1.8,2.7,4.1,2.7s4.1-2.7,4.1-2.7s-1.8-2.7-4.1-2.7C23.3,28.2,21.5,30.9,21.5,30.9z" fill="rgb(245, 225, 105)" style="fill: rgb(245, 225, 105);"></path></g><g class="ld ld-breath" style="transform-origin: 50px 50px 0px; animation-duration: 1s; animation-delay: -0.313725s; animation-direction: normal;"><path class="st122" d="M24.6,28.4c0,0-2.7-1.8-2.7-4.1c0-2.3,2.7-4.1,2.7-4.1s2.7,1.8,2.7,4.1C27.3,26.5,24.6,28.4,24.6,28.4z" fill="rgb(245, 225, 105)" style="fill: rgb(245, 225, 105);"></path></g><g class="ld ld-breath" style="transform-origin: 50px 50px 0px; animation-duration: 1s; animation-delay: -0.294118s; animation-direction: normal;"><path class="st122" d="M27.9,24.2c0,0,1.1,3.1,3.3,3.7s4.7-1.5,4.7-1.5s-1.1-3.1-3.3-3.7S27.9,24.2,27.9,24.2z" fill="rgb(245, 225, 105)" style="fill: rgb(245, 225, 105);"></path></g><g class="ld ld-breath" style="transform-origin: 50px 50px 0px; animation-duration: 1s; animation-delay: -0.27451s; animation-direction: normal;"><path class="st122" d="M31.6,22.6c0,0-2.1-2.5-1.5-4.7s3.7-3.3,3.7-3.3s2.1,2.5,1.5,4.7S31.6,22.6,31.6,22.6z" fill="rgb(245, 225, 105)" style="fill: rgb(245, 225, 105);"></path></g><g class="ld ld-breath" style="transform-origin: 50px 50px 0px; animation-duration: 1s; animation-delay: -0.254902s; animation-direction: normal;"><path class="st123" d="M31.4,22.3c-10,6.2-16.6,17.2-16.6,29.8c0,15.4,10,28.5,23.8,33.2" stroke="rgb(245, 225, 105)" style="stroke: rgb(245, 225, 105);"></path></g></g></g><metadata xmlns:d="https://loading.io/stock/" class="ld ld-breath" style="transform-origin: 50px 50px 0px; animation-duration: 1s; animation-delay: -0.235294s; animation-direction: normal;">
<d:name class="ld ld-breath" style="transform-origin: 50px 50px 0px; animation-duration: 1s; animation-delay: -0.215686s; animation-direction: normal;">medal</d:name>
<d:tags class="ld ld-breath" style="transform-origin: 50px 50px 0px; animation-duration: 1s; animation-delay: -0.196078s; animation-direction: normal;">badge,laurel,prize,winner,trophy,honor,gold,medal,web application</d:tags>
<d:license class="ld ld-breath" style="transform-origin: 50px 50px 0px; animation-duration: 1s; animation-delay: -0.176471s; animation-direction: normal;">rf</d:license>
<d:slug class="ld ld-breath" style="transform-origin: 50px 50px 0px; animation-duration: 1s; animation-delay: -0.156863s; animation-direction: normal;">ebfm3l</d:slug>
</metadata></g></g></g></g><style type="text/css" class="ld ld-breath" style="transform-origin: 50px 50px 0px; animation-duration: 1s; animation-delay: -0.137255s; animation-direction: normal;">@keyframes ld-breath {
  0% {
    -webkit-transform: scale(0.86);
    transform: scale(0.86);
  }
  50% {
    -webkit-transform: scale(1.06);
    transform: scale(1.06);
  }
  100% {
    -webkit-transform: scale(0.86);
    transform: scale(0.86);
  }
}
@-webkit-keyframes ld-breath {
  0% {
    -webkit-transform: scale(0.86);
    transform: scale(0.86);
  }
  50% {
    -webkit-transform: scale(1.06);
    transform: scale(1.06);
  }
  100% {
    -webkit-transform: scale(0.86);
    transform: scale(0.86);
  }
}
.ld.ld-breath {
  -webkit-animation: ld-breath 1s infinite;
  animation: ld-breath 1s infinite;
}
</style></svg></svg>